<svg fill="none" height="24" viewBox="0 0 24 24" width="24" xmlns="http://www.w3.org/2000/svg" xmlns:xlink="http://www.w3.org/1999/xlink"><linearGradient id="a"><stop offset="0" stop-color="#fff"/><stop offset="1" stop-color="#e0dbec"/></linearGradient><radialGradient id="b" cx="15.5034" cy="5.92308" gradientUnits="userSpaceOnUse" r="4.41343" xlink:href="#a"/><linearGradient id="c"><stop offset="0" stop-color="#fc5b54" stop-opacity="0"/><stop offset=".12" stop-color="#eb4e65" stop-opacity=".12"/><stop offset=".5274" stop-color="#b6249a" stop-opacity=".5274"/><stop offset=".8331" stop-color="#950abb" stop-opacity=".8331"/><stop offset="1" stop-color="#8800c7"/></linearGradient><radialGradient id="d" cx="0" cy="0" gradientTransform="matrix(-1.63613457 4.36326764 -2.0620544 -.77322749 16.6238 4.63123)" gradientUnits="userSpaceOnUse" r="1" xlink:href="#c"/><linearGradient id="e"><stop offset="0" stop-color="#bb62ad"/><stop offset=".2371" stop-color="#b95fae"/><stop offset=".4317" stop-color="#b455b1"/><stop offset=".6112" stop-color="#ab43b5"/><stop offset=".7816" stop-color="#9f2bbc"/><stop offset=".9442" stop-color="#8e0cc4"/><stop offset="1" stop-color="#8800c7"/></linearGradient><radialGradient id="f" cx="12.1124" cy="2.07515" gradientUnits="userSpaceOnUse" r="4.45823" xlink:href="#e"/><radialGradient id="g" cx="0" cy="0" gradientTransform="matrix(9.64261295 12.34819978 -12.23036969 9.55060035 11.245 12.737)" gradientUnits="userSpaceOnUse" r="1"><stop offset="0" stop-color="#fff"/><stop offset=".3621" stop-color="#fcfcfd"/><stop offset=".659" stop-color="#f3f2f8"/><stop offset=".9322" stop-color="#e5e1ef"/><stop offset="1" stop-color="#e0dbec"/></radialGradient><radialGradient id="h" cx="0" cy="0" gradientTransform="matrix(9.65153725 12.35962812 -2.45223736 1.91493304 20.711 11.8585)" gradientUnits="userSpaceOnUse" r="1"><stop offset="0" stop-color="#d1f2ff" stop-opacity=".4"/><stop offset=".4739" stop-color="#bfedff" stop-opacity=".2105"/><stop offset="1" stop-color="#b0e9ff" stop-opacity="0"/></radialGradient><radialGradient id="i" cx="13.7117" cy="25.402" gradientUnits="userSpaceOnUse" r="9.9537"><stop offset="0" stop-color="#ef708c" stop-opacity=".4"/><stop offset="1" stop-color="#ef708c" stop-opacity="0"/></radialGradient><linearGradient id="j"><stop offset="0" stop-color="#d098c5"/><stop offset=".2785" stop-color="#d19bc7" stop-opacity=".8608"/><stop offset=".5069" stop-color="#d3a5cd" stop-opacity=".7465"/><stop offset=".7177" stop-color="#d7b7d7" stop-opacity=".6412"/><stop offset=".9166" stop-color="#ddcfe5" stop-opacity=".5417"/><stop offset="1" stop-color="#e0dbec" stop-opacity=".5"/></linearGradient><radialGradient id="k" cx="17.2084" cy="7.14826" gradientUnits="userSpaceOnUse" r="3.78011" xlink:href="#j"/><radialGradient id="l" cx="0" cy="0" gradientTransform="matrix(-8.72752144 14.65916198 -3.62172939 -2.15624338 6.76039 10.7568)" gradientUnits="userSpaceOnUse" r="1" xlink:href="#j"/><radialGradient id="m" cx="0" cy="0" gradientTransform="matrix(-.8115771 2.41461914 -6.88705236 -2.31480563 12.39 14.7158)" gradientUnits="userSpaceOnUse" r="1"><stop offset="0" stop-color="#f9f9fc" stop-opacity="0"/><stop offset=".3911" stop-color="#f6f6fa" stop-opacity=".3911"/><stop offset=".7115" stop-color="#eeecf5" stop-opacity=".7115"/><stop offset="1" stop-color="#e0dbec"/></radialGradient><linearGradient id="n" gradientUnits="userSpaceOnUse" x1="8.99318" x2="2.87989" y1="19.472" y2="14.6313"><stop offset="0"/><stop offset="1" stop-color="#8800c7"/></linearGradient><linearGradient id="o"><stop offset="0"/><stop offset="1" stop-opacity="0"/></linearGradient><linearGradient id="p" gradientUnits="userSpaceOnUse" x1="1.31305" x2="6.273" xlink:href="#o" y1="10.3374" y2="17.2574"/><linearGradient id="q"><stop offset="0" stop-color="#bb62ad"/><stop offset=".2802" stop-color="#a94bab"/><stop offset=".8671" stop-color="#7b0fa4"/><stop offset="1" stop-color="#7000a3"/></linearGradient><linearGradient id="r" gradientUnits="userSpaceOnUse" x1="-.723762" x2="8.85204" xlink:href="#q" y1="2.36241" y2="11.7529"/><linearGradient id="s" gradientUnits="userSpaceOnUse" x1="1.04499" x2="11.2092" xlink:href="#q" y1="-5.29625" y2="16.9869"/><linearGradient id="t" gradientUnits="userSpaceOnUse" x1="40.1218" x2="-.743871" xlink:href="#o" y1="12.5914" y2="12.1423"/><linearGradient id="u"><stop offset="0" stop-color="#bb62ad"/><stop offset=".2371" stop-color="#b95fad"/><stop offset=".4317" stop-color="#b155ac"/><stop offset=".6112" stop-color="#a443aa"/><stop offset=".7816" stop-color="#912ba7"/><stop offset=".9442" stop-color="#7a0ca4"/><stop offset="1" stop-color="#7000a3"/></linearGradient><radialGradient id="v" cx="21.214" cy="15.1539" gradientUnits="userSpaceOnUse" r="4.81174" xlink:href="#u"/><linearGradient id="w"><stop offset="0" stop-color="#7000a3"/><stop offset="1"/></linearGradient><radialGradient id="x" cx="0" cy="0" gradientTransform="matrix(.78350131 -2.20297932 1.34183164 .47722955 19.0103 18.2104)" gradientUnits="userSpaceOnUse" r="1" xlink:href="#w"/><linearGradient id="y" gradientUnits="userSpaceOnUse" x1="19.5781" x2="19.3916" y1="18.1446" y2="20.86"><stop offset="0" stop-color="#391838"/><stop offset=".2285" stop-color="#3b173b"/><stop offset=".4159" stop-color="#401545"/><stop offset=".5889" stop-color="#491157"/><stop offset=".7532" stop-color="#550c6f"/><stop offset=".9098" stop-color="#65058e"/><stop offset="1" stop-color="#7000a3"/></linearGradient><linearGradient id="z"><stop offset="0" stop-color="#d098c5"/><stop offset=".2785" stop-color="#d19bc7" stop-opacity=".7215"/><stop offset=".5069" stop-color="#d3a5cd" stop-opacity=".4931"/><stop offset=".7177" stop-color="#d7b7d7" stop-opacity=".2823"/><stop offset=".9166" stop-color="#ddcfe5" stop-opacity=".083428"/><stop offset="1" stop-color="#e0dbec" stop-opacity="0"/></linearGradient><radialGradient id="A" cx="16.0402" cy="18.335" gradientUnits="userSpaceOnUse" r="9.37209" xlink:href="#z"/><radialGradient id="B" cx="0" cy="0" gradientTransform="matrix(-.34499287 .84013519 -.69790412 -.28658714 14.3226 11.1274)" gradientUnits="userSpaceOnUse" r="1" xlink:href="#j"/><radialGradient id="C" cx="0" cy="0" gradientTransform="matrix(-.31381625 .76421313 -.63483184 -.26068716 14.2517 11.0446)" gradientUnits="userSpaceOnUse" r="1"><stop offset="0" stop-color="#512d00"/><stop offset="1"/></radialGradient><linearGradient id="D" gradientUnits="userSpaceOnUse" x1="13.4459" x2="13.9239" y1="12.8185" y2="11.4536"><stop offset="0"/><stop offset="1" stop-color="#512d00"/></linearGradient><linearGradient id="E" gradientUnits="userSpaceOnUse" x1="7.64411" x2="7.12141" xlink:href="#q" y1="6.997" y2="11.2695"/><linearGradient id="F" gradientUnits="userSpaceOnUse" x1="8.90894" x2="5.483" xlink:href="#q" y1="13.9567" y2="10.9739"/><linearGradient id="G" gradientUnits="userSpaceOnUse" x1="10.7007" x2="7.37947" xlink:href="#o" y1="7.56768" y2="12.0336"/><radialGradient id="H" cx="0" cy="0" gradientTransform="matrix(1.35967754 -.10479479 .10479479 1.35967754 16.3583 8.53563)" gradientUnits="userSpaceOnUse" r="1" xlink:href="#z"/><linearGradient id="I" gradientUnits="userSpaceOnUse" x1="3.20412" x2="9.01808" xlink:href="#u" y1="12.5262" y2="8.78108"/><linearGradient id="J" gradientUnits="userSpaceOnUse" x1="4.02313" x2="9.95461" xlink:href="#u" y1=".543588" y2="8.5204"/><radialGradient id="K" cx="22.623" cy="17.1314" gradientUnits="userSpaceOnUse" r="1.19965" xlink:href="#w"/><linearGradient id="L" gradientUnits="userSpaceOnUse" x1="20.7433" x2="19.9433" y1="4.94973" y2="3.0416"><stop offset="0" stop-color="#f05c00"/><stop offset=".5926" stop-color="#fa7a00"/><stop offset=".9987" stop-color="#ff8900"/></linearGradient><linearGradient id="M" gradientUnits="userSpaceOnUse" x1="15.9213" x2="17.1062" y1="6.95677" y2="9.19085"><stop offset=".00268665" stop-color="#7000a3"/><stop offset=".7988" stop-color="#9500da"/><stop offset=".9934" stop-color="#9f00e8"/></linearGradient><linearGradient id="N" gradientUnits="userSpaceOnUse" x1="17.4206" x2="16.8821" y1="8.12134" y2="5.33602"><stop offset=".00662825" stop-color="#3640ff"/><stop offset=".1428" stop-color="#2657f8"/><stop offset=".4841" stop-color="#008ee6"/><stop offset=".7886" stop-color="#0facf6"/><stop offset=".9973" stop-color="#17bbfe"/></linearGradient><linearGradient id="O" gradientUnits="userSpaceOnUse" x1="19.2263" x2="18.8436" y1="6.4943" y2="4.03854"><stop offset="0" stop-color="#ffbf00"/><stop offset=".00802441" stop-color="#ffbf01"/><stop offset=".6596" stop-color="#fdca29"/><stop offset=".9973" stop-color="#fcce38"/></linearGradient><linearGradient id="P" gradientUnits="userSpaceOnUse" x1="18.2212" x2="18.0138" y1="7.12277" y2="4.7193"><stop offset=".00132565" stop-color="#4b8c1c"/><stop offset=".2325" stop-color="#5ea12c"/><stop offset=".7361" stop-color="#82c94a"/><stop offset=".9973" stop-color="#90d856"/></linearGradient><linearGradient id="Q" gradientUnits="userSpaceOnUse" x1="21.4508" x2="20.9193" y1="3.89284" y2="2.11195"><stop offset="0" stop-color="#c20000"/><stop offset=".076599" stop-color="#c80400"/><stop offset=".6838" stop-color="#f02300"/><stop offset=".9987" stop-color="#ff2f00"/></linearGradient><radialGradient id="R" cx="0" cy="0" gradientTransform="matrix(4.14617935 -4.60505728 .52566185 .47328147 18.0797 5.93728)" gradientUnits="userSpaceOnUse" r="1"><stop offset="0" stop-color="#440063" stop-opacity=".75"/><stop offset="1" stop-color="#420061" stop-opacity="0"/></radialGradient><radialGradient id="S" cx="0" cy="0" gradientTransform="matrix(4.60932394 -4.13987933 .47257083 .52615834 17.6841 4.99078)" gradientUnits="userSpaceOnUse" r="1"><stop offset="0" stop-color="#fff" stop-opacity=".5"/><stop offset="1" stop-color="#fff" stop-opacity="0"/></radialGradient><linearGradient id="T" gradientUnits="userSpaceOnUse" x1="14.799" x2="16.0056" xlink:href="#o" y1="7.0497" y2="7.13275"/><radialGradient id="U" cx="0" cy="0" gradientTransform="matrix(1.39806795 1.88487014 -.8516159 .63167052 14.5688 5.12386)" gradientUnits="userSpaceOnUse" r="1" xlink:href="#e"/><linearGradient id="V" gradientUnits="userSpaceOnUse" x1="10.2187" x2="10.2869" xlink:href="#o" y1="5.78934" y2="8.90847"/><radialGradient id="W" cx="8.26016" cy="2.90991" gradientUnits="userSpaceOnUse" r="5.55203" xlink:href="#e"/><linearGradient id="X" gradientUnits="userSpaceOnUse" x1="7.60967" x2="10.7459" xlink:href="#u" y1="2.0048" y2="7.11815"/><radialGradient id="Y" cx="0" cy="0" gradientTransform="matrix(5.91590867 -.92630925 .92630925 5.91590867 13.5047 7.45695)" gradientUnits="userSpaceOnUse" r="1" xlink:href="#a"/><radialGradient id="Z" cx="0" cy="0" gradientTransform="matrix(-.20699725 6.94096409 -4.0162544 -.11977495 13.6769 5.35213)" gradientUnits="userSpaceOnUse" r="1" xlink:href="#c"/><path d="m16.2058 3.04541s-2.1714.93143-2.3542 3.44572c-.1372 1.85714 2.2857 1.09143 2.2857 1.09143s.9543-2.93715.0685-4.53715z" fill="url(#b)"/><path d="m15.28 6.22255c0 1.08572.3943 1.42857.9086 1.16.1943-.68.76-2.98285.0114-4.33714.0057 0-.92 1.08571-.92 3.17714z" fill="url(#d)"/><path d="m13.6058 4.61139c2.52-.70286 4 1.89143 2.9486 3.47429 0 0-.2915-1.22286-1.1029-1.62286s-1.7828.26857-1.7828.26857l-.8572-.86286z" fill="url(#f)"/><path d="m14.023 16.3824s-.6 2.2743-.6 3.3657c0 1.0915-.5428 2.1829-1.5428 2.3886s-6.77145.4343-8.22859-2.84l.06857-1.1828 5.29715-12.74861c5.11427-1.70286 8.82857 2.25143 10.45147 6.31431 1.1885 2.9828 4.2114 3.9828 2.64 6.7771-1.3258 2.3657-4.2286 2.5886-5.7943-.5428-.5715-1.1315-1.3829-1.4172-2.2915-1.5315z" fill="url(#g)"/><path d="m14.023 16.3824s-.6 2.2743-.6 3.3657c0 1.0915-.5428 2.1829-1.5428 2.3886s-6.77145.4343-8.22859-2.84l.06857-1.1828 5.29715-12.74861c5.11427-1.70286 8.82857 2.25143 10.45147 6.31431 1.1885 2.9828 4.2114 3.9828 2.64 6.7771-1.3258 2.3657-4.2286 2.5886-5.7943-.5428-.5715-1.1315-1.3829-1.4172-2.2915-1.5315z" fill="url(#h)" opacity=".75"/><path d="m14.023 16.3824s-.6 2.2743-.6 3.3657c0 1.0915-.5428 2.1829-1.5428 2.3886s-6.77145.4343-8.22859-2.84l.06857-1.1828 5.29715-12.74861c5.11427-1.70286 8.82857 2.25143 10.45147 6.31431 1.1885 2.9828 4.2114 3.9828 2.64 6.7771-1.3258 2.3657-4.2286 2.5886-5.7943-.5428-.5715-1.1315-1.3829-1.4172-2.2915-1.5315z" fill="url(#i)" opacity=".75"/><path d="m13.5599 5.47949c2.72.6 2.3143 2.97143.8628 3.78286-.0171.01143-.0342-.00571-.0285-.02286.0514-.21714.24-1.13714-.1486-1.72571-.4457-.67429-1.48-.57143-1.48-.57143l-.28-1.06286z" fill="url(#k)"/><path d="m12.8345 5.09717-.8629.32571c-4.27999 1.60572-7.35428 5.42282-7.98285 9.94862-.24 1.7257-.31428 3.1371-.33714 3.68.27429-.16.57143-.1543.84572.2114.78285 1.0686 1.33142 1 .96571.6343-.36572-.3657-.58857-1.7029-.27429-1.9086.31429-.2057 1.06857-1.0229 1.56572-1.9543.49714-.9314.16-2.4571.43428-2.52 2.16572-.5143 2.64572-2.9657 2.76-3.0228 1.46285-.74862 1.86285-2.73147 1.93715-2.90862l1.96-2.2c-.3257-.11428-.6629-.21143-1.0114-.28571z" fill="url(#l)"/><path d="m22.1028 18.4508c-1.3257 2.3657-4.2286 2.5886-5.7943-.5428-.56-1.1257-1.3714-1.4115-2.2857-1.52v.0114c-1.48-.1771-3.2514.0514-4.76571-2.2571 0 0-1.04-1.3772 1.23431-1.4172 2.7371-.0457 2.6228 1.4972 3.6114 1.84 1.6686.5714 3.2171.5486 3.6971 1.8.4743 1.2457 4.3029 2.0857 4.3029 2.0857z" fill="url(#m)"/><path d="m6.14291 13.4227c.50858 2.4572-.78857 5.9029-4.61714 5.1657-.10857-.0228-.13714-.1485-.04-.1828.73143-.2515 1.73143-1.3315 1.96572-4.3543.14857-1.8629 1.22285-1.7486 2.8-1.5086 1.57714.24-.10858.88-.10858.88z" fill="url(#n)"/><path d="m6.28585 12.8623-2.25143 1.7543-.68.32c-.12.7943-.29143 1.4228-.50286 1.9143.20572.5428.58857 1.0685 1.18857 1.5371.38286-.1657.70857-.3943.98857-.6686-.01714-.0514-.02857-.08-.02857-.08l.13715-.0342c.13714-.1486.26285-.3143.37714-.4858.01143-.6971.11428-2.12.73714-2.6285 0-.3657-.03429-.7315-.10286-1.0743 0 0 .25715-.0972.47429-.2286-.17143-.1886-.33714-.3257-.33714-.3257z" fill="url(#p)"/><path d="m13.3143 5.86272c.5657-.22286.6343-.83428.0628-1.04571-2.6571-.98286-4.9771.33143-5.89139 2.22857-1.94285 4.02282-4.16 4.16572-4.25143 7.88002-.06857 2.8571 1.77715 4.6285 2.07429 4.7428.36.1372-.25143-1.3085-.07429-3.9028.14858-2.1086 2.06858-2.7315 2.54858-3.4.48-.6686 2.56574-5.34288 2.56574-5.34288z" fill="url(#r)"/><path d="m4.61144 16.4285c-1.66858-4.5257 3.29714-5.9085 3.49142-8.51995.23429-3.09143 3.56004-3.08572 5.26854-3.08572-2.6571-.98285-5.14854.15429-6.06854 2.05143-1.94285 4.02284-3.98285 4.34284-4.07428 8.05714-.06857 2.8571 1.87428 4.6857 2.07428 4.7429.00572-.0058.55429.1314-.69142-3.2458z" fill="url(#s)"/><path d="m13.3143 5.8627c-.8572-1.33714-2.2343-.12-3.55431 1.09143-.4.37143-1.08572.20572-1.17715.75429-.29143-.15429-.56-.38286-.76-.64572-.10285-.13714-.37143.73715.46286 1.48.09714.08572.14286.21715.12.34286-.08571.48571-.22286 1-.50286 1.53144-.44.0171-.84571-.08-1.10285-.1657-.09143-.0286-.16.0743-.10286.1485.15428.2.33714.3886.44571.5029.06857.0686.09143.1714.05143.2629-.15428.3428-.45714.7485-.85143 1.0628-.46857.3714-.83428.7657-1.11428 1.1772-.18286-.0172-.34857-.0343-.48-.0572-.13143-.0171-.21143.0686-.13143.1429.08571.08.18286.1485.27428.2171.05715.04.08.12.04572.1829-.86286 1.7085-.68572 4.0628.48 5.32-.18286-1.0972-.26857-2.1829-.18286-3.44.04572-.6572.26286-1.1657.55429-1.5772.21714-.3085.47428-.56.73714-.7828.51429-.4343 1.04-.7315 1.25714-1.04.09143-.1257.24-.3943.41715-.7543.21142-.4172.46857-.9486.73142-1.5029.15429-.31997.30286-.6514.45143-.9714.26286-.57143.50857-1.10285.67996-1.49143.1715-.38285.28-.62285.28-.62285z" fill="url(#t)"/><path d="m17.4228 17.1425c-.64.8-.5428 1.96.28 2.5657 1.5372 1.1371 3.4057.5657 4.4-1.2057.4571-.8172.5486-1.4858.4114-2.0915-.0857-.3771-.5371-1.0971-.5657-1.0971-.76-.12-.9428.3657-1.3771.4457-.4972.0914-.8114-.1429-1.8114.1314s-1.0686.7886-1.2515 1.12c-.0285.0515-.0571.0915-.0857.1315z" fill="url(#v)"/><path d="m19.4345 17.754c-.1143-.4.3314-.6514.0457-.7543-.2857-.1028-.6343.1257-.7772.5143-.1428.3886-.0228.7886.2686.8914.2857.1029.5714-.2743.4629-.6514z" fill="url(#x)"/><path d="m17.8514 18.4625c-.2057-.2572-.4114.48.0229.5371.4057.0514.8457 1.1029 3.0686.8057.1657-.1143.32-.24.4685-.3886-.0457.0172-2.1028.8629-3.56-.9542z" fill="url(#y)"/><path d="m14.0228 16.3996c-1.48-.1828-3.2514.0458-4.76569-2.2628-.12-.1829-.4-.0514-.33715.1543.12.4057.34857.8914.80572 1.3657 1.94852 2.0286 3.58282 1.4971 3.15432 4.0171-.2858 1.6857-1.7429 2.6115-1 2.4572 1-.2057 1.5428-1.2972 1.5428-2.3886-.0057-1.0343.6057-3.1314.6-3.3429z" fill="url(#A)" opacity=".5"/><path d="m13.4915 10.9937c-.2171.5371.0343 1.3143.7315 1.2343.4228-.0457.6628-.3143.7085-.72.0515-.4457-.1428-.9143-.4971-1.0515-.3543-.1371-.7714.1086-.9429.5372z" fill="url(#B)"/><path d="m13.4915 10.9937c-.1657.4343-.0114.8914.3486 1.0286.3543.1371.7772-.1029.9429-.5372s.0114-.8914-.3486-1.0285c-.3543-.1372-.7771.1028-.9429.5371z" fill="url(#C)"/><path d="m13.9087 10.8336c-.0515.1371-.0057.2857.1086.3257.1142.04.2457-.0343.2971-.1714.0514-.1372.0057-.2857-.1086-.3257-.1085-.04-.2457.0342-.2971.1714z" fill="url(#D)"/><path d="m9.58859 9.91406c.15429 2.60574-2.61143 4.55424-5.02857 3.54854-.09714-.04-.06857-.1428.05714-.1828.57143-.1829 1.74286-.6229 2.29715-1.2857.74857-.8972.49142-1.6629.49142-1.6629l.81143.2229z" fill="url(#E)"/><path d="m8.58308 10.4114c-.00572-.0057-.01143-.0171-.01715-.0229l-.34285.16-.81143-.2228s.25714.7657-.49143 1.6628c-.55429.6629-1.73143 1.1029-2.29715 1.2858-.07428.0228-.11428.0742-.11428.1142.88.2115 2.01143.0343 2.65143-.2571 1.10286-.4971 2.00571-1.92 1.42286-2.72z" fill="url(#F)"/><path d="m7.40578 10.3255s.13715.4171-.08571.9943c.77714.2057 1.77143-.1543 2.18285-.4743.07429-.2914.10286-.6057.08572-.93144l-1.37143.62854z" fill="url(#G)"/><path d="m16.5315 8.16544-.2285.48571s.9428.44 1.44.08c.4971-.36-.5372-.8-.5372-.8z" fill="url(#H)"/><path d="m11.6685 7.33106c-1.1829 2.31999-2.08575 4.43424-4.9429 2.92574-.08-.04-.05714-.1715.02858-.1772.68-.0743 2.22857-.43426 2.26285-2.23426.03429-1.75428 2.45147-2.72 3.65717-2.15428 1.2057.56571-1.0057 1.64-1.0057 1.64z" fill="url(#I)"/><path d="m6.7256 10.2568c2.85715 1.5143 3.76-.60569 4.9429-2.92569 0 0 .92-.45143 1.2457-.92-.5943-.09714-1.2457.24-1.8172 1.56-1.45711 3.36569-4.05711 2.25139-4.34282 2.10859-.08572.0057-.10858.1371-.02858.1771z" fill="url(#J)"/><path d="m22.5143 16.4171c-.0286-.0171-.0572-.0286-.0914-.0343-.1886.0514-.1886.36-.0858.5143.1029.1543-.2057.4743.0858.6914.0285-.0171.0514-.0343.0685-.0514.1029-.4.0972-.7714.0229-1.12z" fill="url(#K)"/><path d="m19.9602 4.31959 1.0743-1.43429c-.1771-.21714-.3257-.41714-.4457-.59428l-1.3429.99428-.16.48z" fill="url(#L)"/><path d="m16.783 8.58839.6343-.85143c-1.0571-.81714-1.4-1.6-1.5029-1.99428l-.9942.73714c-.08.05714-.1143.16-.0915.25143.1143.42857.5257 1.75428 1.7143 1.95428.0914.00572.1829-.02857.24-.09714z" fill="url(#M)"/><path d="m17.4171 7.73144.7886-1.05714c-.6629-.54857-1.0343-1.27429-1.2114-1.73143l-1.0743.79429c-.0057.61714.5257 1.50857 1.4971 1.99428z" fill="url(#N)"/><path d="m19.1143 5.45107.8457-1.13714c-.4114-.32572-.6571-.75429-.72-1.04l-1.08.8-.1886 1.26285z" fill="url(#O)"/><path d="m18.2058 6.67373.9086-1.22286c-.6-.40571-.9029-.98285-.9543-1.37714l-1.1657.86286c.0228.48571.44 1.18857 1.2114 1.73714z" fill="url(#P)"/><path d="m20.2458 2.5369c0 .19429.2515.51429.5029.72571l.1714-.23428.7029-.94286c.0686-.09143.0629-.21143-.0114-.29714-.08-.09143-.2172-.10286-.3143-.03429z" fill="url(#Q)"/><path d="m21.6115 1.79419c-.08-.09143-.2172-.10286-.3143-.03429l-6.3714 4.71429c-.08.05714-.1143.16-.0915.25143.1143.42857.5258 1.75428 1.7143 1.95428.0857.01715.1772-.01714.2343-.09143l4.84-6.49714c.0686-.09143.0629-.21714-.0114-.29714z" fill="url(#R)" opacity=".48"/><path d="m21.6115 1.79419c-.08-.09143-.2172-.10286-.3143-.03429l-6.3714 4.71429c-.08.05714-.1143.16-.0915.25143.1143.42857.5258 1.75428 1.7143 1.95428.0857.01715.1772-.01714.2343-.09143l4.84-6.49714c.0686-.09143.0629-.21714-.0114-.29714z" fill="url(#S)" opacity=".75"/><path d="m14.8344 6.72545c.0743.27428.2686.90857.7028 1.38857.8229-.73143.3943-1.73714-.0914-2.02857l-.5257.38857c-.0743.05714-.1086.15429-.0857.25143z" fill="url(#T)"/><path d="m13.5828 5.08545c2.72.6 2.3143 2.97143.8629 3.78286-.0172.01143-.0343-.00572-.0286-.02286.0514-.21714.24-1.13714-.1486-1.72571-.4457-.67429-1.48-.57143-1.48-.57143l-.28-1.06286z" fill="url(#U)"/><path d="m11.6288 7.41086c-.52-.17143-1.1772-.28-1.1772-.28l-1.37138.26857c-.04.14286-.05714.28571-.06286.44-.00571.27428-.04571.52-.11428.73143.6.19428 1.45142.10285 2.18852-.11429.1772-.33143.3543-.68571.5372-1.04571z" fill="url(#V)"/><path d="m12.48 4.4624c-1.04.08572-1.7886 1.19429-2.28 2.03429-.49147.84-1.57147.78857-2.32575.34857-.18286-.10857-.00572 1.29714 1.89714 1.33143 1.76001.03428 2.31431-.94286 2.34281-2.05715.0229-1.10857.3658-1.65714.3658-1.65714z" fill="url(#W)"/><path d="m10.4743 7.74826c-.97144.25143-1.92572-.02286-2.65715-.85715-.02857.25143.34857 1.25143 1.94857 1.28572 1.75998.03428 2.31428-.94286 2.34288-2.05715.0114-.54285.1028-.94857.1886-1.22857-1.0572.57715-.7943 2.59429-1.8229 2.85715z" fill="url(#X)"/><path d="m13.3086 2.85107s-1.9314.87429-1.6685 4.32001c.0228.30285.1085.51428.2343.65714.5657.65143 1.9485-.16 1.9485-.16s.64-1.86857-.5143-4.81715z" fill="url(#Y)"/><path d="m13.0801 7.32536c.2914.03429.4343-.06286.5429-.20571.1085-.13715.1657-.30286.1828-.47429.0914-.81143.1714-2.07429-.4971-3.79429-1.2172 1.8-1.6857 4.31429-.2286 4.47429z" fill="url(#Z)"/></svg>